<svg xmlns="http://www.w3.org/2000/svg" width="18" height="15" viewBox="0 0 18 15">
  <g id="Polygon_1" data-name="Polygon 1" fill="rgba(82,128,226,0.31)">
    <path d="M 14.46761894226074 14.24999523162842 L 3.532379150390625 14.24999523162842 C 3.076079130172729 14.24999523162842 2.669449090957642 14.01293563842773 2.444628953933716 13.61587524414062 C 2.219819068908691 13.21880531311035 2.225759029388428 12.74815559387207 2.460519075393677 12.3568754196167 L 7.928129196166992 3.244175434112549 C 8.156128883361816 2.86417555809021 8.556829452514648 2.637305498123169 8.999999046325684 2.637305498123169 C 9.443168640136719 2.637305498123169 9.843869209289551 2.86417555809021 10.07186889648438 3.244175434112549 L 15.53948879241943 12.3568754196167 C 15.77424907684326 12.74814510345459 15.78018951416016 13.21880531311035 15.55536937713623 13.61587524414062 C 15.3305492401123 14.01293563842773 14.92391872406006 14.24999523162842 14.46761894226074 14.24999523162842 Z" stroke="none"/>
    <path d="M 8.999999046325684 3.387306213378906 C 8.894268989562988 3.387306213378906 8.697969436645508 3.418846130371094 8.571249008178711 3.630046844482422 L 3.103629112243652 12.74274635314941 C 2.973149299621582 12.96022605895996 3.043648719787598 13.1516170501709 3.097278594970703 13.24634647369385 C 3.150918960571289 13.3410758972168 3.278759002685547 13.49999618530273 3.532379150390625 13.49999618530273 L 14.46761894226074 13.49999618530273 C 14.72123908996582 13.49999618530273 14.84907913208008 13.3410758972168 14.90271949768066 13.24634647369385 C 14.95634937286377 13.1516170501709 15.02684879302979 12.96022605895996 14.89635848999023 12.74274635314941 L 9.42875862121582 3.630056381225586 C 9.302019119262695 3.418846130371094 9.105729103088379 3.387306213378906 8.999999046325684 3.387306213378906 M 8.999999046325684 1.887304306030273 C 9.663291931152344 1.887304306030273 10.32658386230469 2.210971832275391 10.71498870849609 2.858306884765625 L 16.18259811401367 11.97100639343262 C 16.98242950439453 13.30405616760254 16.02220916748047 14.99999618530273 14.46761894226074 14.99999618530273 L 3.532379150390625 14.99999618530273 C 1.977788925170898 14.99999618530273 1.017568588256836 13.30405616760254 1.817388534545898 11.97100639343262 L 7.285009384155273 2.858306884765625 C 7.67341423034668 2.210971832275391 8.336706161499023 1.887304306030273 8.999999046325684 1.887304306030273 Z" stroke="none" fill="#fff"/>
  </g>
</svg>
